<svg width="34" height="39" viewBox="0 0 34 39" fill="none" xmlns="http://www.w3.org/2000/svg">
<path d="M31.127 23.1873L30.3875 22.5928C30.1887 22.4338 30.0282 22.2322 29.9179 22.0028C29.8075 21.7735 29.7502 21.5223 29.75 21.2679V14.4054C29.749 11.4562 28.7241 8.59879 26.85 6.32044C24.976 4.04209 22.3689 2.48397 19.4735 1.91184C19.3323 1.3647 19.0131 0.879979 18.5662 0.533895C18.1192 0.18781 17.5697 0 17.0042 0C16.4388 0 15.8893 0.18781 15.4423 0.533895C14.9954 0.879979 14.6762 1.3647 14.535 1.91184C11.638 2.48223 9.02899 4.03961 7.15325 6.31813C5.27752 8.59664 4.25138 11.455 4.25 14.4054V21.2679C4.24984 21.5223 4.19247 21.7735 4.08213 22.0028C3.97179 22.2322 3.81129 22.4338 3.6125 22.5928L2.873 23.1873C1.97989 23.9008 1.2582 24.8052 0.761004 25.8341C0.263812 26.8629 0.00376854 27.9901 0 29.1326V30.5425C0 31.4435 0.358213 32.3076 0.995837 32.9447C1.63346 33.5818 2.49826 33.9397 3.4 33.9397H10.421C10.8042 35.3901 11.6569 36.6729 12.8462 37.5883C14.0355 38.5036 15.4945 39 16.9958 39C18.497 39 19.956 38.5036 21.1453 37.5883C22.3346 36.6729 23.1873 35.3901 23.5705 33.9397H30.6C31.5017 33.9397 32.3665 33.5818 33.0042 32.9447C33.6418 32.3076 34 31.4435 34 30.5425V29.1496C33.9988 28.0042 33.74 26.8737 33.2427 25.8417C32.7454 24.8097 32.0223 23.9026 31.127 23.1873ZM17 35.6384C16.4067 35.6348 15.8246 35.4761 15.3116 35.1781C14.7987 34.8801 14.3727 34.4532 14.076 33.9397H19.9325C19.6351 34.4544 19.2078 34.8822 18.6932 35.1803C18.1786 35.4783 17.5948 35.6363 17 35.6384ZM30.6 30.5425H3.4V29.1496C3.40091 28.5131 3.54499 27.885 3.82159 27.3116C4.09819 26.7383 4.50024 26.2344 4.998 25.8372L5.7375 25.2427C6.33388 24.7656 6.81536 24.1607 7.14639 23.4727C7.47741 22.7847 7.64952 22.0312 7.65 21.2679V14.4054C7.65 11.9276 8.63509 9.55125 10.3886 7.79918C12.142 6.04712 14.5202 5.06282 17 5.06282C19.4798 5.06282 21.858 6.04712 23.6114 7.79918C25.3649 9.55125 26.35 11.9276 26.35 14.4054V21.2679C26.3492 22.0327 26.5207 22.7878 26.8518 23.4774C27.1828 24.1669 27.665 24.7732 28.2625 25.2512L29.002 25.8457C29.4986 26.242 29.9 26.7445 30.1766 27.3163C30.4531 27.8881 30.5978 28.5145 30.6 29.1496V30.5425Z" fill="#034249"/>
</svg>
