<?xml version="1.0" encoding="UTF-8"?><svg id="Calque_1" xmlns="http://www.w3.org/2000/svg" viewBox="0 0 16 16"><defs><style>.cls-1{fill:#00434a;}.cls-2{fill:#e60000;}</style></defs><g><path class="cls-1" d="m8.44,5.61v-2.26c-1.32.03-2.53.81-3.09,2.02-.02.04-.04.09-.06.13l2.14.76c.19-.39.58-.64,1-.65Z"/><path class="cls-1" d="m9.31,7.13c-.26-.06-.53-.09-.79-.09-.03,0-.05,0-.07,0v2.26s0,0,.01,0c.09,0,.18,0,.27.03.61.14.99.75.85,1.36s-.75.99-1.36.85-.99-.75-.85-1.36c.01-.05.03-.11.05-.16,0-.02.02-.05.03-.07l-2.14-.76c-.07.17-.13.35-.17.54-.44,1.87.73,3.74,2.6,4.18,1.87.44,3.74-.73,4.18-2.6.44-1.87-.73-3.74-2.6-4.18Z"/></g><rect class="cls-1" x="9.46" y="2.66" width=".85" height="3.03"/><circle class="cls-2" cx="9.88" cy="1.64" r=".64"/></svg>