<svg width="101" height="152" viewBox="0 0 101 152" fill="none" xmlns="http://www.w3.org/2000/svg">
<path d="M50.2945 131.828C36.9556 131.828 24.163 126.514 14.7309 117.057C5.29887 107.599 0 94.7719 0 81.3968C0 80.0593 0.529888 78.7766 1.47309 77.8308C2.4163 76.8851 3.69556 76.3538 5.02945 76.3538C6.36334 76.3538 7.6426 76.8851 8.58581 77.8308C9.52901 78.7766 10.0589 80.0593 10.0589 81.3968C10.0589 92.0969 14.298 102.359 21.8436 109.925C29.3893 117.491 39.6233 121.741 50.2945 121.741C60.9656 121.741 71.1997 117.491 78.7454 109.925C86.291 102.359 90.5301 92.0969 90.5301 81.3968C90.5301 80.0593 91.06 78.7766 92.0032 77.8308C92.9464 76.8851 94.2256 76.3538 95.5595 76.3538C96.8934 76.3538 98.1727 76.8851 99.1159 77.8308C100.059 78.7766 100.589 80.0593 100.589 81.3968C100.589 94.7719 95.2901 107.599 85.8581 117.057C76.426 126.514 63.6334 131.828 50.2945 131.828Z" fill="#034249"/>
<path d="M50.2946 152C48.9607 152 47.6814 151.469 46.7382 150.523C45.795 149.577 45.2651 148.294 45.2651 146.957V126.785C45.2651 125.447 45.795 124.164 46.7382 123.219C47.6814 122.273 48.9607 121.741 50.2946 121.741C51.6285 121.741 52.9077 122.273 53.8509 123.219C54.7942 124.164 55.324 125.447 55.324 126.785V146.957C55.324 148.294 54.7942 149.577 53.8509 150.523C52.9077 151.469 51.6285 152 50.2946 152Z" fill="#034249"/>
<path d="M50.2944 111.655C42.291 111.655 34.6155 108.467 28.9562 102.793C23.297 97.1182 20.1177 89.4218 20.1177 81.3968V30.966C20.1177 22.9409 23.297 15.2446 28.9562 9.57002C34.6155 3.89546 42.291 0.70752 50.2944 0.70752C58.2977 0.70752 65.9733 3.89546 71.6325 9.57002C77.2917 15.2446 80.4711 22.9409 80.4711 30.966V81.3968C80.4711 89.4218 77.2917 97.1182 71.6325 102.793C65.9733 108.467 58.2977 111.655 50.2944 111.655ZM50.2944 10.7937C44.9588 10.7937 39.8418 12.919 36.0689 16.702C32.2961 20.4851 30.1766 25.616 30.1766 30.966V81.3968C30.1766 86.7468 32.2961 91.8777 36.0689 95.6608C39.8418 99.4438 44.9588 101.569 50.2944 101.569C55.6299 101.569 60.747 99.4438 64.5198 95.6608C68.2926 91.8777 70.4122 86.7468 70.4122 81.3968V30.966C70.4122 25.616 68.2926 20.4851 64.5198 16.702C60.747 12.919 55.6299 10.7937 50.2944 10.7937Z" fill="#034249"/>
</svg>
