<svg width="106" height="204" viewBox="0 0 106 204" fill="none" xmlns="http://www.w3.org/2000/svg">
<path d="M54.2945 183.828C40.9556 183.828 28.163 178.514 18.7309 169.057C9.29887 159.599 4 146.772 4 133.397C4 132.059 4.52989 130.777 5.47309 129.831C6.4163 128.885 7.69556 128.354 9.02945 128.354C10.3633 128.354 11.6426 128.885 12.5858 129.831C13.529 130.777 14.0589 132.059 14.0589 133.397C14.0589 144.097 18.298 154.359 25.8436 161.925C33.3893 169.491 43.6233 173.741 54.2945 173.741C64.9656 173.741 75.1997 169.491 82.7454 161.925C90.291 154.359 94.5301 144.097 94.5301 133.397C94.5301 132.059 95.06 130.777 96.0032 129.831C96.9464 128.885 98.2256 128.354 99.5595 128.354C100.893 128.354 102.173 128.885 103.116 129.831C104.059 130.777 104.589 132.059 104.589 133.397C104.589 146.772 99.2901 159.599 89.8581 169.057C80.426 178.514 67.6334 183.828 54.2945 183.828Z" fill="#034249"/>
<path d="M54.2946 204C52.9607 204 51.6814 203.469 50.7382 202.523C49.795 201.577 49.2651 200.294 49.2651 198.957V178.785C49.2651 177.447 49.795 176.164 50.7382 175.219C51.6814 174.273 52.9607 173.741 54.2946 173.741C55.6285 173.741 56.9077 174.273 57.8509 175.219C58.7942 176.164 59.324 177.447 59.324 178.785V198.957C59.324 200.294 58.7942 201.577 57.8509 202.523C56.9077 203.469 55.6285 204 54.2946 204Z" fill="#034249"/>
<path d="M54.2944 163.655C46.291 163.655 38.6155 160.467 32.9562 154.793C27.297 149.118 24.1177 141.422 24.1177 133.397V82.966C24.1177 74.9409 27.297 67.2446 32.9562 61.57C38.6155 55.8955 46.291 52.7075 54.2944 52.7075C62.2977 52.7075 69.9733 55.8955 75.6325 61.57C81.2917 67.2446 84.4711 74.9409 84.4711 82.966V133.397C84.4711 141.422 81.2917 149.118 75.6325 154.793C69.9733 160.467 62.2977 163.655 54.2944 163.655ZM54.2944 62.7937C48.9588 62.7937 43.8418 64.919 40.0689 68.702C36.2961 72.4851 34.1766 77.616 34.1766 82.966V133.397C34.1766 138.747 36.2961 143.878 40.0689 147.661C43.8418 151.444 48.9588 153.569 54.2944 153.569C59.6299 153.569 64.747 151.444 68.5198 147.661C72.2926 143.878 74.4122 138.747 74.4122 133.397V82.966C74.4122 77.616 72.2926 72.4851 68.5198 68.702C64.747 64.919 59.6299 62.7937 54.2944 62.7937Z" fill="#034249"/>
<path d="M25.2627 45.6186C40 26.9998 67.5 26 81.6907 45.6186" stroke="#034249" stroke-width="9" stroke-linecap="round"/>
<path d="M5 28C30.0723 -1.85967 76.8577 -3.4631 101 28" stroke="#034249" stroke-width="9" stroke-linecap="round"/>
</svg>
