<svg width="18" height="21" viewBox="0 0 18 21" fill="none" xmlns="http://www.w3.org/2000/svg">
<path d="M1.96875 0C0.881449 0 0 0.881438 0 1.96875V18.2812C0 19.3686 0.881449 20.25 1.96875 20.25H5.90625C6.99357 20.25 7.87501 19.3686 7.87501 18.2812V1.96875C7.87501 0.881438 6.99357 0 5.90625 0H1.96875Z" fill="#034249"/>
<path d="M12.0938 0C11.0064 0 10.125 0.881438 10.125 1.96875V18.2812C10.125 19.3686 11.0064 20.25 12.0938 20.25H16.0312C17.1186 20.25 18 19.3686 18 18.2812V1.96875C18 0.881438 17.1186 0 16.0312 0H12.0938Z" fill="#034249"/>
</svg>
