<svg width="25" height="25" viewBox="0 0 25 25" fill="none" xmlns="http://www.w3.org/2000/svg">
<path d="M3.40909 6.81818C2.73484 6.81818 2.07573 6.61824 1.5151 6.24365C0.954481 5.86905 0.517529 5.33663 0.259503 4.7137C0.00147711 4.09076 -0.0660343 3.40531 0.0655062 2.74401C0.197047 2.08271 0.521731 1.47527 0.998501 0.998501C1.47527 0.521731 2.08271 0.197047 2.74401 0.0655063C3.40531 -0.0660343 4.09076 0.00147711 4.71369 0.259503C5.33662 0.517529 5.86905 0.954481 6.24365 1.5151C6.61824 2.07573 6.81818 2.73484 6.81818 3.40909C6.81818 4.31324 6.45901 5.18036 5.81968 5.81968C5.18035 6.45901 4.31324 6.81818 3.40909 6.81818ZM3.40909 2.27273C3.18434 2.27273 2.96464 2.33938 2.77776 2.46424C2.59089 2.58911 2.44524 2.76658 2.35923 2.97422C2.27322 3.18187 2.25072 3.41035 2.29456 3.63079C2.33841 3.85122 2.44664 4.0537 2.60556 4.21262C2.76449 4.37155 2.96697 4.47977 3.1874 4.52362C3.40783 4.56747 3.63632 4.54496 3.84396 4.45896C4.0516 4.37295 4.22908 4.2273 4.35394 4.04042C4.47881 3.85355 4.54546 3.63384 4.54546 3.40909C4.54546 3.10771 4.42573 2.81867 4.21262 2.60556C3.99951 2.39245 3.71047 2.27273 3.40909 2.27273Z" fill="#034249"/>
<path d="M3.40909 15.909C2.73484 15.909 2.07573 15.7091 1.5151 15.3345C0.954481 14.9599 0.517529 14.4274 0.259503 13.8045C0.00147711 13.1816 -0.0660343 12.4961 0.0655062 11.8348C0.197047 11.1735 0.521731 10.5661 0.998501 10.0893C1.47527 9.61255 2.08271 9.28787 2.74401 9.15633C3.40531 9.02479 4.09076 9.0923 4.71369 9.35032C5.33662 9.60835 5.86905 10.0453 6.24365 10.6059C6.61824 11.1665 6.81818 11.8257 6.81818 12.4999C6.81818 13.4041 6.45901 14.2712 5.81968 14.9105C5.18035 15.5498 4.31324 15.909 3.40909 15.909ZM3.40909 11.3635C3.18434 11.3635 2.96464 11.4302 2.77776 11.5551C2.59089 11.6799 2.44524 11.8574 2.35923 12.065C2.27322 12.2727 2.25072 12.5012 2.29456 12.7216C2.33841 12.942 2.44664 13.1445 2.60556 13.3034C2.76449 13.4624 2.96697 13.5706 3.1874 13.6144C3.40783 13.6583 3.63632 13.6358 3.84396 13.5498C4.0516 13.4638 4.22908 13.3181 4.35394 13.1312C4.47881 12.9444 4.54546 12.7247 4.54546 12.4999C4.54546 12.1985 4.42573 11.9095 4.21262 11.6964C3.99951 11.4833 3.71047 11.3635 3.40909 11.3635Z" fill="#034249"/>
<path d="M3.40909 25.0001C2.73484 25.0001 2.07573 24.8001 1.5151 24.4255C0.954481 24.0509 0.517529 23.5185 0.259503 22.8956C0.00147711 22.2726 -0.0660343 21.5872 0.0655062 20.9259C0.197047 20.2646 0.521731 19.6572 0.998501 19.1804C1.47527 18.7036 2.08271 18.3789 2.74401 18.2474C3.40531 18.1159 4.09076 18.1834 4.71369 18.4414C5.33662 18.6994 5.86905 19.1364 6.24365 19.697C6.61824 20.2576 6.81818 20.9167 6.81818 21.591C6.81818 22.4951 6.45901 23.3622 5.81968 24.0016C5.18035 24.6409 4.31324 25.0001 3.40909 25.0001ZM3.40909 20.4546C3.18434 20.4546 2.96464 20.5213 2.77776 20.6461C2.59089 20.771 2.44524 20.9485 2.35923 21.1561C2.27322 21.3638 2.25072 21.5922 2.29456 21.8127C2.33841 22.0331 2.44664 22.2356 2.60556 22.3945C2.76449 22.5534 2.96697 22.6617 3.1874 22.7055C3.40783 22.7494 3.63632 22.7268 3.84396 22.6408C4.0516 22.5548 4.22908 22.4092 4.35394 22.2223C4.47881 22.0354 4.54546 21.8157 4.54546 21.591C4.54546 21.2896 4.42573 21.0006 4.21262 20.7874C3.99951 20.5743 3.71047 20.4546 3.40909 20.4546Z" fill="#034249"/>
<path d="M23.8635 4.54543H10.2272C9.9258 4.54543 9.63676 4.42571 9.42365 4.2126C9.21054 3.99949 9.09082 3.71045 9.09082 3.40907C9.09082 3.10769 9.21054 2.81865 9.42365 2.60554C9.63676 2.39243 9.9258 2.27271 10.2272 2.27271H23.8635C24.1649 2.27271 24.454 2.39243 24.6671 2.60554C24.8802 2.81865 24.9999 3.10769 24.9999 3.40907C24.9999 3.71045 24.8802 3.99949 24.6671 4.2126C24.454 4.42571 24.1649 4.54543 23.8635 4.54543Z" fill="#034249"/>
<path d="M23.8635 13.6363H10.2272C9.9258 13.6363 9.63676 13.5165 9.42365 13.3034C9.21054 13.0903 9.09082 12.8013 9.09082 12.4999C9.09082 12.1985 9.21054 11.9095 9.42365 11.6964C9.63676 11.4832 9.9258 11.3635 10.2272 11.3635H23.8635C24.1649 11.3635 24.454 11.4832 24.6671 11.6964C24.8802 11.9095 24.9999 12.1985 24.9999 12.4999C24.9999 12.8013 24.8802 13.0903 24.6671 13.3034C24.454 13.5165 24.1649 13.6363 23.8635 13.6363Z" fill="#034249"/>
<path d="M23.8635 22.7273H10.2272C9.9258 22.7273 9.63676 22.6076 9.42365 22.3945C9.21054 22.1814 9.09082 21.8923 9.09082 21.591C9.09082 21.2896 9.21054 21.0005 9.42365 20.7874C9.63676 20.5743 9.9258 20.4546 10.2272 20.4546H23.8635C24.1649 20.4546 24.454 20.5743 24.6671 20.7874C24.8802 21.0005 24.9999 21.2896 24.9999 21.591C24.9999 21.8923 24.8802 22.1814 24.6671 22.3945C24.454 22.6076 24.1649 22.7273 23.8635 22.7273Z" fill="#034249"/>
</svg>
