<svg width="27" height="21" viewBox="0 0 27 21" fill="none" xmlns="http://www.w3.org/2000/svg">
<path d="M5.46875 6.72184H1.45833C1.33678 6.72184 1.2202 6.7716 1.13424 6.86016C1.04829 6.94873 1 7.06886 1 7.19411V13.8059C1 13.9311 1.04829 14.0513 1.13424 14.1398C1.2202 14.2284 1.33678 14.2782 1.45833 14.2782H5.4487C5.65998 14.2764 5.8653 14.3503 6.02964 14.4871L11.2701 18.9082C11.3383 18.9599 11.4191 18.9911 11.5035 18.9984C11.5879 19.0056 11.6726 18.9887 11.7482 18.9493C11.8238 18.91 11.8873 18.8499 11.9318 18.7756C11.9762 18.7014 11.9998 18.6158 12 18.5286V2.47141C11.9998 2.38415 11.9762 2.29864 11.9318 2.22437C11.8873 2.1501 11.8238 2.08997 11.7482 2.05066C11.6726 2.01134 11.5879 1.99437 11.5035 2.00164C11.4191 2.00891 11.3383 2.04012 11.2701 2.09182L6.02964 6.51286C5.87288 6.64928 5.67393 6.72341 5.46875 6.72184Z" stroke="#034249" stroke-width="2" stroke-linecap="round" stroke-linejoin="round"/>
<path d="M17 14C17.6087 12.7888 18 11.4475 18 10C18 8.5325 17.625 7.22375 17 6" stroke="#034249" stroke-width="2" stroke-linecap="round" stroke-linejoin="round"/>
<path d="M20 17C21.2175 14.88 22 12.9962 22 10C22 7.00375 21.25 5.14125 20 3" stroke="#034249" stroke-width="2" stroke-linecap="round" stroke-linejoin="round"/>
<path d="M23 20C24.875 17.2687 26 14.5713 26 10.5C26 6.42866 24.875 3.79062 23 1" stroke="#034249" stroke-width="2" stroke-linecap="round" stroke-linejoin="round"/>
</svg>
