<svg width="27" height="29" viewBox="0 0 27 29" fill="none" xmlns="http://www.w3.org/2000/svg">
<path d="M21.5501 22.4547C23.4555 22.4547 25.0001 20.9284 25.0001 19.0456C25.0001 17.1628 23.4555 15.6365 21.5501 15.6365C19.6447 15.6365 18.1001 17.1628 18.1001 19.0456C18.1001 20.9284 19.6447 22.4547 21.5501 22.4547Z" stroke="#034249" stroke-width="3" stroke-linecap="round" stroke-linejoin="round"/>
<path d="M5.45 27.0001C7.35538 27.0001 8.9 25.4738 8.9 23.591C8.9 21.7082 7.35538 20.1819 5.45 20.1819C3.54462 20.1819 2 21.7082 2 23.591C2 25.4738 3.54462 27.0001 5.45 27.0001Z" stroke="#034249" stroke-width="3" stroke-linecap="round" stroke-linejoin="round"/>
<path d="M24.9999 7.68188L8.8999 12.2273" stroke="#034249" stroke-width="3" stroke-linecap="round" stroke-linejoin="round"/>
<path d="M8.8999 23.5909V6.01691L24.9999 2V19.574" stroke="#034249" stroke-width="3" stroke-linecap="round" stroke-linejoin="round"/>
</svg>
