<svg width="27" height="23" viewBox="0 0 27 23" fill="none" xmlns="http://www.w3.org/2000/svg">
<path d="M1 20V11.5V6.5L2.5 5.5L8 5L8.5 3L10.5 1L15.5 0.5L17.5 2L18.5 4.5L24.7349 5L26 7.5V17V20.5L24.7349 21.5L9.5 22H4.5L2 21.5L1 20Z" fill="white"/>
<path d="M23.8846 23H3.11538C2.28913 23 1.49672 22.6696 0.912475 22.0814C0.328227 21.4932 0 20.6955 0 19.8636V7.31818C0 6.48637 0.328227 5.68862 0.912475 5.10044C1.49672 4.51225 2.28913 4.18182 3.11538 4.18182H7.49769L7.94423 2.37318C8.11319 1.69515 8.50232 1.09337 9.04981 0.663416C9.5973 0.233458 10.2718 -4.00327e-05 10.9662 5.14811e-09H16.0338C16.7282 -4.00327e-05 17.4027 0.233458 17.9502 0.663416C18.4977 1.09337 18.8868 1.69515 19.0558 2.37318L19.5023 4.18182H23.8846C24.7109 4.18182 25.5033 4.51225 26.0875 5.10044C26.6718 5.68862 27 6.48637 27 7.31818V19.8636C27 20.6955 26.6718 21.4932 26.0875 22.0814C25.5033 22.6696 24.7109 23 23.8846 23ZM3.11538 6.27273C2.83997 6.27273 2.57583 6.38287 2.38108 6.57893C2.18633 6.77499 2.07692 7.04091 2.07692 7.31818V19.8636C2.07692 20.1409 2.18633 20.4068 2.38108 20.6029C2.57583 20.7989 2.83997 20.9091 3.11538 20.9091H23.8846C24.16 20.9091 24.4242 20.7989 24.6189 20.6029C24.8137 20.4068 24.9231 20.1409 24.9231 19.8636V7.31818C24.9231 7.04091 24.8137 6.77499 24.6189 6.57893C24.4242 6.38287 24.16 6.27273 23.8846 6.27273H18.6923C18.4551 6.27968 18.2227 6.20463 18.0337 6.06007C17.8448 5.9155 17.7107 5.71014 17.6538 5.47818L17.01 2.875C16.9511 2.64498 16.8162 2.442 16.6275 2.29948C16.4387 2.15696 16.2074 2.0834 15.9715 2.09091H10.9662C10.7303 2.0834 10.499 2.15696 10.3102 2.29948C10.1215 2.442 9.98656 2.64498 9.92769 2.875L9.34615 5.47818C9.2893 5.71014 9.15524 5.9155 8.96629 6.06007C8.77734 6.20463 8.54491 6.27968 8.30769 6.27273H3.11538Z" fill="#034249"/>
<path d="M13.4999 18.8183C12.473 18.8183 11.4691 18.5117 10.6152 17.9374C9.76137 17.363 9.09585 16.5466 8.70286 15.5914C8.30987 14.6363 8.20704 13.5852 8.40739 12.5713C8.60773 11.5573 9.10225 10.6259 9.82841 9.89481C10.5546 9.16376 11.4797 8.66591 12.487 8.46421C13.4942 8.26252 14.5382 8.36603 15.4869 8.76167C16.4357 9.15731 17.2466 9.82731 17.8172 10.6869C18.3877 11.5465 18.6922 12.5572 18.6922 13.591C18.6922 14.2775 18.5579 14.9572 18.297 15.5914C18.0361 16.2256 17.6536 16.8019 17.1714 17.2873C16.6893 17.7727 16.1169 18.1577 15.4869 18.4204C14.857 18.6831 14.1818 18.8183 13.4999 18.8183ZM13.4999 10.4547C12.8838 10.4547 12.2814 10.6386 11.7691 10.9833C11.2568 11.3279 10.8575 11.8177 10.6217 12.3908C10.3859 12.9639 10.3242 13.5945 10.4444 14.2029C10.5646 14.8113 10.8613 15.3702 11.297 15.8088C11.7327 16.2474 12.2878 16.5461 12.8921 16.6671C13.4965 16.7882 14.1229 16.7261 14.6921 16.4887C15.2614 16.2513 15.748 15.8493 16.0903 15.3335C16.4326 14.8177 16.6153 14.2114 16.6153 13.591C16.6153 12.7592 16.2871 11.9615 15.7028 11.3733C15.1186 10.7851 14.3262 10.4547 13.4999 10.4547Z" fill="#034249"/>
<path d="M21.8079 10.4547H20.7694C20.494 10.4547 20.2299 10.3445 20.0351 10.1485C19.8404 9.95241 19.731 9.6865 19.731 9.40922C19.731 9.13195 19.8404 8.86604 20.0351 8.66998C20.2299 8.47392 20.494 8.36377 20.7694 8.36377H21.8079C22.0833 8.36377 22.3474 8.47392 22.5422 8.66998C22.7369 8.86604 22.8463 9.13195 22.8463 9.40922C22.8463 9.6865 22.7369 9.95241 22.5422 10.1485C22.3474 10.3445 22.0833 10.4547 21.8079 10.4547Z" fill="#034249"/>
</svg>
