<svg width="36" height="39" viewBox="0 0 36 39" fill="none" xmlns="http://www.w3.org/2000/svg">
<path d="M33.1026 23.1908L32.3568 22.5964C32.1563 22.4374 31.9945 22.2358 31.8832 22.0065C31.7719 21.7772 31.714 21.5261 31.7139 21.2717V14.4107C31.6986 12.8943 31.4083 11.3929 30.8567 9.97822L35.4599 5.41835C35.7816 5.09969 35.9624 4.66749 35.9624 4.21683C35.9624 3.76617 35.7816 3.33396 35.4599 3.0153C35.1382 2.69663 34.7019 2.51761 34.247 2.51761C33.792 2.51761 33.3557 2.69663 33.034 3.0153L29.1937 6.86189C27.2943 4.3001 24.4966 2.53434 21.3501 1.91142C21.2077 1.36441 20.8858 0.879788 20.435 0.533779C19.9842 0.18777 19.4301 0 18.8598 0C18.2896 0 17.7355 0.18777 17.2847 0.533779C16.8339 0.879788 16.512 1.36441 16.3696 1.91142C13.4466 2.48197 10.8143 4.04026 8.92242 6.32003C7.03058 8.5998 5.99663 11.4596 5.99722 14.4107V21.2717C5.99706 21.5261 5.93921 21.7772 5.82793 22.0065C5.71665 22.2358 5.55479 22.4374 5.35431 22.5964L4.60852 23.1908C3.70782 23.9041 2.98 24.8083 2.47858 25.8369C1.97717 26.8656 1.71491 27.9925 1.71111 29.1347V30.5443C1.71387 31.0065 1.81184 31.4634 1.99904 31.8868C2.18623 32.3102 2.45871 32.6913 2.79978 33.0068L0.502428 35.291C0.343139 35.4488 0.216784 35.6361 0.130577 35.8422C0.0443701 36.0484 0 36.2694 0 36.4925C0 36.7156 0.0443701 36.9366 0.130577 37.1428C0.216784 37.3489 0.343139 37.5362 0.502428 37.694C0.824128 38.0127 1.26045 38.1917 1.7154 38.1917C1.94067 38.1917 2.16373 38.1478 2.37185 38.0624C2.57997 37.977 2.76908 37.8518 2.92837 37.694L6.70872 33.9408H12.2292C12.6157 35.3909 13.4756 36.6734 14.6751 37.5886C15.8745 38.5037 17.3459 39 18.8598 39C20.3738 39 21.8452 38.5037 23.0446 37.5886C24.244 36.6734 25.104 35.3909 25.4905 33.9408H32.5711C33.4805 33.9408 34.3527 33.583 34.9957 32.946C35.6387 32.309 36 31.4451 36 30.5443V29.1517C35.9988 28.0066 35.7377 26.8764 35.2362 25.8446C34.7347 24.8128 34.0055 23.9059 33.1026 23.1908ZM5.14 30.5443V29.1517C5.14092 28.5154 5.28622 27.8874 5.56517 27.3142C5.84413 26.7409 6.24959 26.2372 6.75158 25.8401L7.49736 25.2457C8.09881 24.7687 8.58438 24.1639 8.91822 23.4761C9.25206 22.7883 9.42563 22.0349 9.42611 21.2717V14.4107C9.4344 12.4044 10.0947 10.454 11.3092 8.84829C12.5236 7.2426 14.2278 6.06697 16.1694 5.49543C18.1109 4.92389 20.1867 4.98681 22.0893 5.6749C23.9919 6.36298 25.6203 7.63964 26.7334 9.31589L5.30287 30.5443H5.14ZM18.8556 35.6391C18.2572 35.6355 17.6701 35.4769 17.1528 35.179C16.6355 34.881 16.2059 34.4542 15.9067 33.9408H21.813C21.5131 34.4554 21.0821 34.8831 20.5631 35.1811C20.0442 35.4791 19.4554 35.637 18.8556 35.6391ZM32.5711 30.5443H10.1376L28.1393 12.7124C28.24 13.2729 28.2888 13.8414 28.285 14.4107V21.2717C28.2842 22.0364 28.4571 22.7914 28.791 23.4808C29.1249 24.1702 29.6112 24.7763 30.2138 25.2542L30.9595 25.8486C31.4604 26.2448 31.8652 26.7472 32.1441 27.3188C32.423 27.8905 32.5689 28.5168 32.5711 29.1517V30.5443Z" fill="#034249"/>
</svg>
