<svg width="14" height="12" viewBox="0 0 14 12" fill="none" xmlns="http://www.w3.org/2000/svg">
<path d="M6.54097 11.1258C6.36793 11.1262 6.19652 11.0924 6.03659 11.0264C5.87666 10.9603 5.73138 10.8632 5.6091 10.7408L1.10285 6.23455C0.746869 5.87471 0.46606 5.44762 0.276779 4.97817C0.0874978 4.50872 -0.00647138 4.0063 0.000346074 3.50018C0.00377595 3.03636 0.098678 2.57777 0.279616 2.15069C0.460555 1.7236 0.723974 1.33641 1.05479 1.01129C1.3856 0.686163 1.7773 0.4295 2.20746 0.255998C2.63762 0.0824952 3.09779 -0.00443759 3.5616 0.000178895C4.03371 -0.00457665 4.50197 0.0855246 4.9386 0.265139C5.37524 0.444753 5.77136 0.710223 6.10347 1.0458L6.54097 1.4833L6.89972 1.12455C7.51918 0.488677 8.3481 0.0988407 9.23294 0.0272489C10.1178 -0.0443428 10.9986 0.207161 11.7122 0.735179C12.1184 1.04801 12.4534 1.44381 12.6947 1.8962C12.936 2.34859 13.0781 2.8472 13.1116 3.35883C13.1452 3.87046 13.0693 4.38336 12.8891 4.86337C12.7089 5.34339 12.4285 5.7795 12.0666 6.14268L7.47285 10.7408C7.35056 10.8632 7.20528 10.9603 7.04535 11.0264C6.88543 11.0924 6.71401 11.1262 6.54097 11.1258ZM3.5441 0.870804C2.8487 0.870094 2.18031 1.13996 1.68035 1.6233C1.42546 1.86854 1.22276 2.16276 1.08443 2.4883C0.946092 2.81384 0.874975 3.16397 0.875346 3.51768C0.871512 3.90675 0.944946 4.29272 1.09139 4.6532C1.23784 5.01368 1.45438 5.34151 1.72847 5.61768L6.23472 10.1239C6.27539 10.1649 6.32378 10.1975 6.37709 10.2197C6.43041 10.2419 6.48759 10.2533 6.54535 10.2533C6.6031 10.2533 6.66029 10.2419 6.7136 10.2197C6.76691 10.1975 6.8153 10.1649 6.85597 10.1239L11.4541 5.52143C11.724 5.24582 11.9325 4.91622 12.066 4.55429C12.1995 4.19236 12.2548 3.80628 12.2285 3.42143C12.2051 3.03263 12.098 2.65347 11.9145 2.30989C11.731 1.96632 11.4755 1.66645 11.1653 1.4308C10.6212 1.02957 9.94965 0.839853 9.27595 0.897001C8.60225 0.954149 7.97231 1.25426 7.50347 1.74143L6.8516 2.4108C6.81093 2.45181 6.76254 2.48436 6.70922 2.50657C6.65591 2.52878 6.59873 2.54022 6.54097 2.54022C6.48322 2.54022 6.42603 2.52878 6.37272 2.50657C6.31941 2.48436 6.27102 2.45181 6.23035 2.4108L5.4866 1.66705C4.97433 1.15924 4.28291 0.87324 3.5616 0.870804H3.5441Z" fill="#034249"/>
</svg>
