<svg width="9" height="9" viewBox="0 0 9 9" fill="none" xmlns="http://www.w3.org/2000/svg">
<path d="M3.68203 5.94979L0.854028 8.77829C0.807573 8.82474 0.752423 8.86159 0.691726 8.88673C0.63103 8.91187 0.565975 8.92481 0.500278 8.92481C0.434581 8.92481 0.369526 8.91187 0.30883 8.88673C0.248133 8.86159 0.192983 8.82474 0.146528 8.77829C0.100073 8.73183 0.0632227 8.67668 0.0380814 8.61598C0.0129401 8.55529 0 8.49023 0 8.42454C0 8.35884 0.0129401 8.29379 0.0380814 8.23309C0.0632227 8.17239 0.100073 8.11724 0.146528 8.07079L2.97503 5.24279L0.854028 3.12079C1.25276 2.72171 1.74214 2.42505 2.28039 2.25614C2.81864 2.08723 3.38978 2.05108 3.94503 2.15079L5.80353 0.292786C5.99106 0.105315 6.24536 0 6.51053 0C6.77569 0 7.03 0.105315 7.21753 0.292786L8.63203 1.70679C8.72493 1.79965 8.79863 1.90991 8.84891 2.03126C8.89919 2.15261 8.92507 2.28268 8.92507 2.41404C8.92507 2.54539 8.89919 2.67546 8.84891 2.79681C8.79863 2.91817 8.72493 3.02842 8.63203 3.12129L6.77403 4.97929C6.87375 5.53466 6.83757 6.10591 6.66857 6.64426C6.49957 7.18261 6.20277 7.67205 5.80353 8.07079L3.68203 5.94979Z" fill="#034249"/>
</svg>
