<svg width="20" height="23" viewBox="0 0 20 23" fill="none" xmlns="http://www.w3.org/2000/svg">
<path d="M1.52637 7.20098L8.49902 0.736328C8.88418 0.349609 9.40879 0.15625 9.98652 0.15625C10.5643 0.15625 11.0822 0.349609 11.474 0.736328L18.4732 7.20098C19.3033 7.96797 19.3033 9.21836 18.4732 9.98535C17.6432 10.7523 16.3018 10.7523 15.4717 9.98535L12.1248 6.88516V20.8715C12.1248 21.9607 11.1752 22.8438 9.99981 22.8438C8.82441 22.8438 7.87481 21.9607 7.87481 20.8715V6.88516L4.52793 9.9918C3.69785 10.7588 2.35645 10.7588 1.52637 9.9918C0.696289 9.21836 0.696289 7.97441 1.52637 7.20098Z" fill="#034249"/>
</svg>
