<svg width="20" height="23" viewBox="0 0 20 23" fill="none" xmlns="http://www.w3.org/2000/svg">
<path d="M18.4736 15.799L11.501 22.2637C11.1158 22.6504 10.5912 22.8437 10.0135 22.8437C9.43574 22.8437 8.91777 22.6504 8.52598 22.2637L1.52676 15.799C0.69668 15.032 0.69668 13.7816 1.52676 13.0146C2.35684 12.2477 3.69824 12.2477 4.52832 13.0146L7.8752 16.1148L7.8752 2.12852C7.8752 1.03926 8.82481 0.156249 10.0002 0.156249C11.1756 0.156249 12.1252 1.03926 12.1252 2.12852L12.1252 16.1148L15.4721 13.0082C16.3021 12.2412 17.6436 12.2412 18.4736 13.0082C19.3037 13.7816 19.3037 15.0256 18.4736 15.799Z" fill="#034249"/>
</svg>
