<svg width="35" height="24" viewBox="0 0 35 24" fill="none" xmlns="http://www.w3.org/2000/svg">
<path d="M6.41605 1.90666C5.89533 1.39336 5.03986 1.35669 4.50054 1.88833C1.72954 4.63817 0 8.41461 0 12.6127C0 16.8108 1.85973 20.8805 4.83529 23.6487C5.37461 24.1437 6.21148 24.107 6.71361 23.5937C7.30872 23.0071 7.23433 22.0905 6.65782 21.5588C4.25877 19.304 2.77099 16.1325 2.77099 12.6127C2.77099 9.09291 4.14719 6.15975 6.37886 3.92321C6.91818 3.39157 6.97397 2.49329 6.39746 1.92499L6.41605 1.90666Z" fill="#034249"/>
<path d="M9.68907 5.13305C9.18694 4.63808 8.35007 4.58309 7.81075 5.09639C5.85803 7.00295 4.63062 9.66112 4.63062 12.5943C4.63062 15.6924 5.98821 18.4789 8.1455 20.4038C8.68482 20.8805 9.4845 20.8071 9.96803 20.3305C10.5817 19.7255 10.4702 18.7906 9.89364 18.259C8.36866 16.829 7.40161 14.8308 7.40161 12.5943C7.40161 10.4861 8.25708 8.57952 9.63328 7.16794C10.1726 6.61797 10.247 5.71969 9.65187 5.13305H9.68907Z" fill="#034249"/>
<path d="M20.0665 5.13305C20.5687 4.63808 21.4055 4.58309 21.9449 5.09639C23.8976 7.00295 25.125 9.66112 25.125 12.5943C25.125 15.6924 23.7674 18.4789 21.6101 20.4038C21.0708 20.8805 20.2711 20.8071 19.7876 20.3305C19.1739 19.7255 19.2855 18.7906 19.862 18.259C21.3869 16.829 22.354 14.8308 22.354 12.5943C22.354 10.4861 21.4985 8.57952 20.1223 7.16794C19.583 6.61797 19.5086 5.71969 20.1037 5.13305H20.0665Z" fill="#034249"/>
<path d="M23.3395 1.90666C23.8602 1.39336 24.7157 1.35669 25.255 1.88833C28.0446 4.61984 29.7741 8.41461 29.7741 12.5944C29.7741 16.7741 27.9144 20.8622 24.9388 23.6304C24.3995 24.1254 23.5626 24.0887 23.0605 23.5754C22.4654 22.9888 22.5398 22.0721 23.1163 21.5405C25.5154 19.2856 27.0031 16.1142 27.0031 12.5944C27.0031 9.07457 25.6269 6.14141 23.3953 3.90488C22.856 3.37324 22.8002 2.47496 23.3953 1.90666H23.3395Z" fill="#034249"/>
<path d="M14.8777 9.86279C13.3342 9.86279 12.0881 11.0911 12.0881 12.6126C12.0881 14.1342 13.3342 15.3625 14.8777 15.3625C16.4213 15.3625 17.6673 14.1342 17.6673 12.6126C17.6673 11.0911 16.4213 9.86279 14.8777 9.86279Z" fill="#034249"/>
<path d="M29.3092 11.2193C32.4521 11.2193 34.9999 8.70781 34.9999 5.60967C34.9999 2.51154 32.4521 0 29.3092 0C26.1662 0 23.6184 2.51154 23.6184 5.60967C23.6184 8.70781 26.1662 11.2193 29.3092 11.2193Z" fill="#D30000"/>
</svg>
