<svg width="30" height="23" viewBox="0 0 30 23" fill="none" xmlns="http://www.w3.org/2000/svg">
<path d="M6.4738 0.409236C5.95452 -0.11036 5.09483 -0.154788 4.54937 0.389142C1.73963 3.19118 0 7.0692 0 11.3529C0 15.8032 1.87759 19.8157 4.882 22.6386C5.43083 23.1544 6.2674 23.0998 6.77556 22.5912C7.36814 21.9983 7.29605 21.0553 6.72473 20.5088C4.31346 18.2023 2.8125 14.9535 2.8125 11.3529C2.8125 7.8885 4.20207 4.74976 6.45498 2.4628C6.99912 1.91043 7.05425 0.990053 6.4738 0.409236Z" fill="#034249"/>
<path d="M9.77699 3.71415C9.27227 3.20911 8.42888 3.14601 7.88577 3.68379C5.91148 5.63863 4.6875 8.35297 4.6875 11.3525C4.6875 14.5261 6.05756 17.3802 8.23667 19.3534C8.78363 19.8489 9.59211 19.7724 10.0803 19.284C10.6956 18.6682 10.5798 17.6994 10.0032 17.1553C8.46141 15.7006 7.5 13.6393 7.5 11.3525C7.5 9.19364 8.35677 7.23599 9.74963 5.79981C10.2864 5.24633 10.3736 4.31112 9.77699 3.71415Z" fill="#034249"/>
<path d="M20.2229 3.71415C20.7277 3.20911 21.5711 3.14601 22.1143 3.68379C24.0884 5.63863 25.3124 8.35297 25.3124 11.3525C25.3124 14.5261 23.9424 17.3802 21.7633 19.3534C21.2163 19.8489 20.4078 19.7724 19.9196 19.284C19.3044 18.6682 19.4201 17.6994 19.9968 17.1553C21.5386 15.7006 22.4999 13.6393 22.4999 11.3525C22.4999 9.19364 21.6433 7.23599 20.2503 5.79981C19.7135 5.24633 19.6263 4.31112 20.2229 3.71415Z" fill="#034249"/>
<path d="M23.526 0.409236C24.0454 -0.11036 24.9051 -0.154788 25.4505 0.389142C28.2602 3.19118 29.9998 7.0692 29.9998 11.3529C29.9998 15.8032 28.1222 19.8157 25.1179 22.6386C24.5691 23.1544 23.7324 23.0998 23.2243 22.5912C22.6316 21.9983 22.7038 21.0553 23.2751 20.5088C25.6864 18.2023 27.1873 14.9535 27.1873 11.3529C27.1873 7.8885 25.7978 4.74976 23.5448 2.4628C23.0006 1.91043 22.9455 0.990053 23.526 0.409236Z" fill="#034249"/>
<path d="M15 8.53857C13.4467 8.53857 12.1875 9.79858 12.1875 11.3528C12.1875 12.9071 13.4467 14.1672 15 14.1672C16.5533 14.1672 17.8125 12.9071 17.8125 11.3528C17.8125 9.79858 16.5533 8.53857 15 8.53857Z" fill="#034249"/>
</svg>
