<svg width="20" height="22" viewBox="0 0 20 22" fill="none" xmlns="http://www.w3.org/2000/svg">
<g clip-path="url(#clip0_485_13180)">
<path d="M10.0037 14.1998C11.7329 14.1998 13.1348 12.7671 13.1348 10.9998C13.1348 9.23249 11.7329 7.7998 10.0037 7.7998C8.27441 7.7998 6.87256 9.23249 6.87256 10.9998C6.87256 12.7671 8.27441 14.1998 10.0037 14.1998Z" stroke="#034249" stroke-width="1.5" stroke-linecap="round" stroke-linejoin="round"/>
<path d="M19.2017 6.4961L18.419 5.1121C17.9884 4.3441 17.0334 4.0881 16.282 4.5281L15.8671 4.7681C14.3015 5.6881 12.3446 4.5361 12.3446 2.6881V2.2001C12.3446 1.3121 11.6401 0.600098 10.779 0.600098H9.21347C8.35242 0.600098 7.64792 1.3121 7.64792 2.2001V2.6881C7.64792 4.5361 5.69097 5.6881 4.12541 4.7681L3.71054 4.5281C2.95907 4.0881 2.00408 4.3521 1.57355 5.1121L0.790772 6.4961C0.360243 7.2641 0.61856 8.2401 1.3622 8.6801L1.77707 8.9201C3.34263 9.8401 3.34263 12.1521 1.77707 13.0801L1.3622 13.3201C0.610733 13.7601 0.360243 14.7361 0.790772 15.5041L1.57355 16.8881C2.00408 17.6561 2.9669 17.9121 3.71054 17.4721L4.12541 17.2321C5.69097 16.3041 7.64792 17.4641 7.64792 19.3121V19.8001C7.64792 20.6801 8.35242 21.4001 9.21347 21.4001H10.779C11.6401 21.4001 12.3446 20.6801 12.3446 19.8001V19.3121C12.3446 17.4641 14.3015 16.3121 15.8671 17.2321L16.282 17.4721C17.0334 17.9121 17.9884 17.6561 18.419 16.8881L19.2017 15.5041C19.6323 14.7361 19.3818 13.7601 18.6303 13.3201L18.2154 13.0801C16.6499 12.1521 16.6499 9.8481 18.2154 8.9201L18.6303 8.6801C19.3818 8.2401 19.6323 7.2641 19.2017 6.4961Z" stroke="#034249" stroke-width="1.5" stroke-linecap="round" stroke-linejoin="round"/>
</g>
<defs>
<clipPath id="clip0_485_13180">
<rect width="20" height="22" fill="white"/>
</clipPath>
</defs>
</svg>
