<svg width="32" height="32" viewBox="0 0 32 32" fill="none" xmlns="http://www.w3.org/2000/svg">
<path d="M21.8591 20.5486L21.8551 20.5511C21.2905 20.912 20.7411 21.2599 20.2723 21.5168C20.037 21.6457 19.7941 21.7674 19.5592 21.8594C19.346 21.9429 19.0335 22.0455 18.6897 22.0455C18.1797 22.0455 17.7929 21.811 17.5662 21.6534C17.3352 21.4929 17.0741 21.2674 16.8085 21.038L16.8071 21.0368L16.7951 21.0264L16.7833 21.0157L16.6992 20.9393C15.1101 19.5583 14.7469 19.1798 14.111 18.517L14.1096 18.5156L14.1042 18.5099L14.1042 18.5099L13.9606 18.3583C13.8992 18.2966 13.8436 18.2387 13.7976 18.1907L13.7968 18.1898C13.7452 18.1359 13.708 18.0972 13.6723 18.0614L13.6653 18.0544L13.6584 18.0473L13.6212 18.009C13.0938 17.4646 12.6813 17.0388 11.3334 15.5129L11.3295 15.5085L11.3295 15.5085L11.2713 15.442C11.2557 15.4243 11.24 15.4065 11.2243 15.3888C10.9291 15.0549 10.6379 14.7255 10.42 14.4346C10.2251 14.1743 9.89726 13.7084 9.85491 13.1367M21.8591 20.5486L10.4321 21.0914C7.59062 18.1745 5.81929 15.7744 3.84532 12.1611L3.84495 12.1604C2.72095 10.1059 2.28667 8.67304 2.16108 7.62886C2.03891 6.61316 2.1981 5.88614 2.41308 5.1883C2.62978 4.48733 3.26055 3.66816 4.26798 3.02805C4.29665 3.0104 4.32103 2.99431 4.33928 2.98198C4.35908 2.96862 4.37749 2.95573 4.38727 2.94888L4.389 2.94767L4.39607 2.94273L4.39719 2.94206L4.41428 2.93103C4.97095 2.57189 5.68833 2.13379 6.48662 2.13379C7.12498 2.13379 7.77297 2.41468 8.43174 3.22133L8.43169 3.22137L8.43963 3.23089L8.52243 3.33026C9.52004 4.54668 10.5228 5.78594 11.1244 7.04148C11.8415 8.55658 11.7105 9.58228 11.1364 10.3584L11.1344 10.3611C10.743 10.8933 10.4339 11.3504 10.2232 11.7433C10.0329 12.0984 9.81427 12.5916 9.85491 13.1367M21.8591 20.5486C22.0017 20.4566 22.2258 20.3783 22.5827 20.3783C23.4086 20.3783 24.6446 20.8386 25.9486 21.5826M21.8591 20.5486L25.9486 21.5826M9.85491 13.1367C9.85493 13.1369 9.85495 13.1372 9.85497 13.1374L11.1015 13.0439L9.8548 13.1352C9.85484 13.1357 9.85487 13.1362 9.85491 13.1367ZM25.9486 21.5826C27.2155 22.3053 28.3185 23.163 28.8444 23.7029M25.9486 21.5826L28.8444 23.7029M28.8444 23.7029C29.4699 24.3486 29.7936 24.8604 29.8596 25.3668C29.9191 25.8228 29.8023 26.5719 28.8136 27.7662C27.8401 28.9399 27.1044 29.4161 26.4962 29.6387C25.8584 29.8722 25.23 29.8838 24.2499 29.8838C22.6095 29.8838 19.9566 28.8152 16.973 26.6576C14.2743 24.7057 13.1151 23.8414 10.4324 21.0916L28.8444 23.7029Z" stroke="#034249" stroke-width="2.5"/>
</svg>
