<?xml version="1.0" encoding="utf-8"?>
<!-- Generator: Adobe Illustrator 27.2.0, SVG Export Plug-In . SVG Version: 6.00 Build 0)  -->
<svg version="1.1" id="Calque_2" xmlns="http://www.w3.org/2000/svg" xmlns:xlink="http://www.w3.org/1999/xlink" x="0px" y="0px"
	 viewBox="0 0 44 44" style="enable-background:new 0 0 44 44;" xml:space="preserve">
<style type="text/css">
	.st0{fill:none;stroke:#034249;stroke-width:2.5;}
</style>
<path class="st0" d="M16.3,27c0,0,7.2,7.2,12.4,8.5c5.2,1.3,6.7-2.7,6.7-4.4c0.1-2.2-2.3-3.4-4.8-4.7c-1.9-1-3.2,0.1-4.2,0.7
	c-1.6,1-2.8,1-5-1.3s-5.4-5.8-5.6-6.8c-0.2-1,0.9-2,1.7-3.6c0.8-1.6-1.7-5.2-2.8-6.1c-1.1-0.9-2.3-1.6-4.3-0.2s-3.5,3.8-0.8,8.8
	S16.3,27,16.3,27z"/>
</svg>
