<svg width="54" height="54" viewBox="0 0 54 54" fill="none" xmlns="http://www.w3.org/2000/svg">
<path d="M37.5301 34.6294V37.8385C37.5301 38.9494 38.4249 39.8443 39.5358 39.8443H42.7295C43.8172 39.8443 44.6966 38.9648 44.6966 37.8771V24.1843C44.6966 23.7677 44.5655 23.3665 44.3263 23.0271L36.8126 12.6205C36.4423 12.1114 35.8561 11.8105 35.2312 11.8105H19.0312C18.3755 11.8105 17.7583 12.1345 17.3803 12.6823L11.9263 20.6588L9.84348 23.6983C9.61977 24.03 9.49634 24.4157 9.49634 24.8091V37.8925C9.49634 38.9725 10.3681 39.8443 11.4481 39.8443H14.7035C15.7912 39.8443 16.6706 38.9648 16.6706 37.8771V34.6217" stroke="#034249" stroke-width="2.5" stroke-linecap="round" stroke-linejoin="round"/>
<path d="M43.0688 21.5845H11.2705" stroke="#034249" stroke-width="2.5" stroke-linecap="round" stroke-linejoin="round"/>
<path d="M9.82031 34.6294H43.7246" stroke="#034249" stroke-width="2.5" stroke-linecap="round" stroke-linejoin="round"/>
<path d="M15.3591 30.0624C16.4412 30.0624 17.3185 29.1851 17.3185 28.103C17.3185 27.0208 16.4412 26.1436 15.3591 26.1436C14.2769 26.1436 13.3997 27.0208 13.3997 28.103C13.3997 29.1851 14.2769 30.0624 15.3591 30.0624Z" stroke="#034249" stroke-width="2.5" stroke-linecap="round" stroke-linejoin="round"/>
<path d="M38.8337 30.0624C39.9159 30.0624 40.7931 29.1851 40.7931 28.103C40.7931 27.0208 39.9159 26.1436 38.8337 26.1436C37.7515 26.1436 36.8743 27.0208 36.8743 28.103C36.8743 29.1851 37.7515 30.0624 38.8337 30.0624Z" stroke="#034249" stroke-width="2.5" stroke-linecap="round" stroke-linejoin="round"/>
</svg>
