<svg width="21" height="21" viewBox="0 0 21 21" fill="none" xmlns="http://www.w3.org/2000/svg">
<path d="M6.25755 6.28226H1.54167C1.39801 6.28226 1.26023 6.33779 1.15865 6.43665C1.05707 6.53551 1 6.66959 1 6.80939V14.1893C1 14.3291 1.05707 14.4632 1.15865 14.562C1.26023 14.6609 1.39801 14.7164 1.54167 14.7164H6.25755C6.50793 14.7165 6.75054 14.8011 6.94411 14.9556L13.1374 19.8975C13.2182 19.9553 13.3138 19.9902 13.4137 19.9982C13.5136 20.0062 13.6139 19.9871 13.7033 19.943C13.7927 19.8989 13.8678 19.8315 13.9202 19.7483C13.9726 19.6651 14.0002 19.5694 14 19.4718V1.52684C13.9999 1.42938 13.9721 1.33385 13.9196 1.25086C13.8672 1.16787 13.7921 1.10065 13.7027 1.05669C13.6133 1.01273 13.5132 0.993732 13.4134 1.00182C13.3136 1.0099 13.2181 1.04475 13.1374 1.10249L6.94411 6.04439C6.75035 6.19846 6.50777 6.28251 6.25755 6.28226Z" stroke="#034249" stroke-width="2" stroke-linecap="round" stroke-linejoin="round"/>
<path d="M19 14C19.6087 12.7869 20 11.4494 20 10C20 8.53062 19.625 7.225 19 6" stroke="#034249" stroke-width="2" stroke-linecap="round" stroke-linejoin="round"/>
</svg>
